<?xml version="1.0" encoding="UTF-8"?>
<!DOCTYPE svg PUBLIC "-//W3C//DTD SVG 1.1//EN" "http://www.w3.org/Graphics/SVG/1.1/DTD/svg11.dtd">
<!-- Creator: CorelDRAW X7 -->
<svg xmlns="http://www.w3.org/2000/svg" xml:space="preserve" width="59.719mm" height="18.9141mm" version="1.1" style="shape-rendering:geometricPrecision; text-rendering:geometricPrecision; image-rendering:optimizeQuality; fill-rule:evenodd; clip-rule:evenodd"
viewBox="0 0 5972 1891"
 xmlns:xlink="http://www.w3.org/1999/xlink">
 <defs>
  <style type="text/css">
   <![CDATA[
    .fil0 {fill:#FFAAD1;fill-rule:nonzero}
   ]]>
  </style>
 </defs>
 <g id="Слой_x0020_1">
  <metadata id="CorelCorpID_0Corel-Layer"/>
  <path class="fil0" d="M0 709l0 -698 170 0 0 270 71 0 143 -270 184 0 -186 335 0 0 197 363 -189 0 -149 -281 -71 0 0 281 -170 0zm601 -146c29,-6 54,-16 73,-33 21,-19 35,-51 48,-97 14,-49 19,-111 19,-192l0 -230 469 0 0 698 -171 0 0 -552 -135 0 0 87c0,167 -27,286 -76,362 -51,73 -127,111 -227,111l0 -154 0 0zm755 146l0 -698 170 0 0 698 -170 0zm316 0l0 -698 171 0 0 281 254 0 0 -281 171 0 0 698 -171 0 0 -273 -254 0 0 273 -171 0zm742 0l0 -698 173 0 0 698 -173 0zm319 0l0 -698 170 0 0 281 255 0 0 -281 170 0 0 698 -170 0 0 -273 -255 0 0 273 -170 0zm741 0l0 -698 428 0 0 146 -257 0 0 552 -171 0zm455 -352c0,-103 35,-187 105,-254 68,-68 157,-103 260,-103 106,0 192,35 263,103 67,67 103,151 103,254 0,103 -36,190 -103,260 -71,70 -157,105 -263,105 -103,0 -192,-35 -260,-105 -70,-70 -105,-157 -105,-260zm179 0c0,60 16,108 54,149 35,38 81,60 132,60 54,0 98,-22 136,-60 35,-41 54,-89 54,-149 0,-57 -19,-105 -54,-143 -38,-38 -82,-57 -136,-57 -51,0 -97,19 -132,57 -38,38 -54,86 -54,143zm660 352l0 -698 257 0c73,0 130,16 173,49 43,29 65,75 65,135 0,30 -8,57 -22,84 -16,27 -35,48 -59,65l0 0c35,10 65,32 81,62 19,30 27,62 27,95 0,73 -24,124 -76,157 -48,35 -113,51 -189,51l-257 0 0 0zm170 -428l90 0c18,0 35,-5 46,-19 10,-10 13,-27 13,-46 0,-16 -3,-29 -13,-40 -11,-14 -28,-19 -49,-19l-87 0 0 124 0 0zm0 282l103 0c24,0 43,-6 54,-22 14,-13 22,-30 22,-51 0,-22 -8,-38 -19,-52 -14,-13 -33,-19 -54,-19l-106 0 0 144zm379 146l238 -698 179 0 238 698 -176 0 -43 -146 -219 0 -41 146 -176 0 0 0zm257 -281l138 0 -38 -136 -30 -122 -2 0c-8,52 -19,92 -27,122l-41 136zm-5238 1453l0 -699 170 0 0 271 70 0 144 -271 184 0 -190 336 0 0 201 363 -193 0 -146 -282 -70 0 0 282 -170 0zm600 -352c0,-103 33,-187 103,-255 70,-67 157,-102 260,-102 105,0 192,35 262,102 71,68 103,152 103,255 0,103 -32,189 -103,260 -70,70 -157,102 -262,102 -103,0 -190,-32 -260,-102 -70,-71 -103,-157 -103,-260zm176 0c0,57 19,108 54,149 38,38 81,59 133,59 54,0 97,-21 135,-59 35,-41 54,-92 54,-149 0,-57 -19,-106 -54,-144 -38,-37 -81,-56 -135,-56 -52,0 -95,19 -133,56 -35,38 -54,87 -54,144zm633 352l60 -699 184 0 103 295 35 117 0 0c13,-49 27,-87 35,-117l103 -295 184 0 57 699 -171 0 -21 -314c0,-17 0,-33 0,-54 0,-19 0,-33 0,-46l0 -17 0 0c-17,49 -30,87 -41,117l-73 203 -146 0 -73 -203 -41 -117 0 0c3,44 3,82 0,117l-22 314 -173 0 0 0zm882 0l0 -699 590 0 0 699 -173 0 0 -552 -246 0 0 552 -171 0 0 0zm661 0l235 -699 181 0 236 699 -176 0 -43 -147 -217 0 -40 147 -176 0zm257 -282l138 0 -41 -138 -27 -119 -3 0c-10,52 -19,92 -27,119l-40 138 0 0zm465 282l0 -699 171 0 0 279 254 0 0 -279 170 0 0 699 -170 0 0 -274 -254 0 0 274 -171 0zm742 0l0 -699 173 0 0 699 -173 0zm251 0l135 -225 28 -41 0 -2c-76,-41 -114,-111 -114,-209 0,-51 11,-94 35,-130 24,-35 54,-59 95,-75 27,-11 73,-17 135,-17l244 0 0 699 -171 0 0 -236 -62 0 -133 236 -192 0 0 0zm311 -377l76 0 0 -175 -59 0c-38,0 -65,8 -82,21 -16,11 -24,33 -24,65 0,60 30,89 89,89l0 0z"/>
 </g>
</svg>
