<?xml version="1.0" encoding="UTF-8"?>
<!DOCTYPE svg PUBLIC "-//W3C//DTD SVG 1.1//EN" "http://www.w3.org/Graphics/SVG/1.1/DTD/svg11.dtd">
<!-- Creator: CorelDRAW X7 -->
<svg xmlns="http://www.w3.org/2000/svg" xml:space="preserve" width="64.5209mm" height="73.6776mm" version="1.1" style="shape-rendering:geometricPrecision; text-rendering:geometricPrecision; image-rendering:optimizeQuality; fill-rule:evenodd; clip-rule:evenodd"
viewBox="0 0 67484 77061"
 xmlns:xlink="http://www.w3.org/1999/xlink">
 <defs>
  <style type="text/css">
   <![CDATA[
    .fil0 {fill:#727271;fill-rule:nonzero}
   ]]>
  </style>
 </defs>
 <g id="Слой_x0020_1">
  <metadata id="CorelCorpID_0Corel-Layer"/>
  <g id="_784396656">
   <path class="fil0" d="M559 4703l0 -4703 1151 0 0 1816 474 0 973 -1816 1237 0 -1269 2250 0 13 1342 2440 -1290 0 -993 -1907 -474 0 0 1907 -1151 0zm4263 1316l0 -4703 1026 0 0 171 -13 217 13 0c232,-312 574,-467 1026,-467 460,0 830,163 1108,490 279,326 418,755 418,1286 0,530 -149,958 -447,1283 -298,324 -676,486 -1132,486 -324,0 -611,-107 -861,-322l-14 0c9,79 14,175 14,289l0 1270 -1138 0zm1105 -2987c0,220 58,409 174,570 116,160 280,240 490,240 189,0 347,-73 474,-217 127,-145 191,-343 191,-593 0,-249 -62,-451 -185,-605 -122,-153 -283,-230 -480,-230 -188,0 -346,70 -474,211 -127,140 -190,348 -190,624zm3059 1671l0 -3387 1072 0 0 1493c0,109 -5,221 -13,335l13 0c26,-65 88,-177 184,-335l941 -1493 1105 0 0 3387 -1072 0 0 -1480c0,-140 4,-254 13,-342l-13 0c-14,35 -75,147 -185,336l-940 1486 -1105 0zm4065 0l0 -3387 1072 0 0 2434 763 0 0 -2434 1072 0 0 2434 763 0 0 -2434 1073 0 0 3387 -4743 0zm6249 0l0 -2434 -1026 0 0 -953 3197 0 0 953 -1033 0 0 2434 -1138 0zm2368 -953c0,-215 59,-402 178,-560 118,-158 275,-278 470,-361 195,-84 398,-144 608,-181 211,-38 430,-56 658,-56l99 0 0 -59c0,-250 -160,-375 -480,-375 -299,0 -610,107 -934,322l-395 -803c153,-118 365,-221 635,-309 269,-87 536,-131 799,-131 469,0 839,122 1108,368 270,246 405,583 405,1013l0 2085 -1039 0 0 -204 13 -210 -13 0c-110,153 -256,274 -438,362 -182,87 -372,131 -569,131 -324,0 -590,-98 -796,-296 -206,-197 -309,-443 -309,-736zm1125 -106c0,84 28,153 85,207 57,55 136,83 237,83 158,0 294,-64 408,-191 114,-127 171,-263 171,-408l0 -92 -105 0c-211,0 -396,32 -556,95 -160,64 -240,166 -240,306zm2500 1092l0 -993c70,-9 131,-23 184,-43 52,-20 109,-57 171,-112 61,-54 110,-128 148,-220 37,-92 69,-220 95,-385 26,-164 40,-358 40,-582l0 -1085 2776 0 0 3387 -1139 0 0 -2486 -565 0 0 191c0,745 -130,1320 -388,1723 -259,403 -700,605 -1322,605zm3986 -1730c0,-509 160,-931 480,-1266 320,-336 748,-503 1283,-503 487,0 869,152 1148,457 278,305 417,698 417,1181 0,79 -9,197 -26,355l-2138 0c40,197 133,347 280,450 147,104 317,155 510,155 280,0 592,-114 934,-342l421 796c-180,153 -401,274 -662,362 -260,87 -522,131 -786,131 -574,0 -1028,-175 -1361,-526 -334,-351 -500,-767 -500,-1250zm1190 -427l1013 0c0,-145 -42,-266 -128,-362 -85,-97 -198,-145 -339,-145 -289,0 -471,169 -546,507zm2730 2124l0 -3387 1849 0c351,0 630,76 838,230 209,153 313,373 313,658 0,149 -35,290 -105,424 -71,134 -167,238 -290,312l0 7c180,57 314,155 401,293 88,138 132,290 132,457 0,346 -122,601 -365,763 -243,162 -552,243 -924,243l-1849 0zm1138 -2052l428 0c101,0 176,-32 227,-95 50,-64 75,-144 75,-241 0,-87 -26,-159 -78,-213 -53,-55 -132,-83 -237,-83l-415 0 0 632zm0 1342l500 0c114,0 203,-33 267,-99 63,-66 95,-144 95,-237 0,-96 -31,-177 -92,-243 -61,-66 -149,-99 -263,-99l-507 0 0 678zm2342 -243c0,-215 59,-402 178,-560 118,-158 275,-278 470,-361 195,-84 398,-144 609,-181 210,-38 429,-56 657,-56l99 0 0 -59c0,-250 -160,-375 -480,-375 -298,0 -610,107 -934,322l-395 -803c154,-118 365,-221 635,-309 270,-87 536,-131 799,-131 469,0 839,122 1108,368 270,246 405,583 405,1013l0 2085 -1039 0 0 -204 13 -210 -13 0c-110,153 -256,274 -438,362 -182,87 -371,131 -569,131 -324,0 -590,-98 -796,-296 -206,-197 -309,-443 -309,-736zm1125 -106c0,84 29,153 86,207 57,55 135,83 236,83 158,0 294,-64 408,-191 114,-127 171,-263 171,-408l0 -92 -105 0c-211,0 -396,32 -556,95 -160,64 -240,166 -240,306zm5368 20c-316,0 -587,-92 -813,-276 -226,-184 -339,-481 -339,-888l0 -1184 1119 0 0 967c0,302 144,453 434,453 188,0 359,-54 513,-164l0 -1256 1138 0 0 3387 -1138 0 0 -1059 7 -158 -14 0c-263,119 -565,178 -907,178zm2815 1039l0 -3387 1072 0 0 1493c0,109 -4,221 -13,335l13 0c27,-65 88,-177 184,-335l941 -1493 1105 0 0 3387 -1072 0 0 -1480c0,-140 4,-254 13,-342l-13 0c-13,35 -75,147 -184,336l-941 1486 -1105 0zm3874 -1697c0,-482 170,-898 510,-1246 340,-349 799,-523 1378,-523 255,0 504,42 747,128 243,85 444,214 602,385l-480 763c-228,-219 -494,-329 -796,-329 -255,0 -453,80 -596,240 -142,160 -213,350 -213,569 0,224 74,420 223,589 149,169 358,253 625,253 303,0 612,-136 928,-408l414 796c-167,171 -380,307 -641,408 -261,101 -532,151 -813,151 -579,0 -1038,-173 -1378,-519 -340,-347 -510,-766 -510,-1257zm4566 1697l0 -2434 -1027 0 0 -953 3197 0 0 953 -1032 0 0 2434 -1138 0zm2973 -411c-369,-326 -553,-751 -553,-1273 0,-522 184,-949 553,-1282 368,-334 822,-500 1361,-500 544,0 1001,165 1372,496 371,331 556,760 556,1286 0,522 -184,947 -553,1273 -368,327 -824,490 -1368,490 -544,0 -1000,-163 -1368,-490zm598 -1273c0,246 75,443 224,592 149,149 331,224 546,224 215,0 397,-75 546,-224 149,-149 224,-346 224,-592 0,-250 -75,-451 -224,-605 -149,-153 -331,-230 -546,-230 -215,0 -397,77 -546,230 -149,154 -224,355 -224,605zm3967 1684l0 -2434 -1026 0 0 -953 3197 0 0 953 -1033 0 0 2434 -1138 0zm2368 -953c0,-215 59,-402 178,-560 118,-158 275,-278 470,-361 195,-84 398,-144 608,-181 211,-38 430,-56 658,-56l99 0 0 -59c0,-250 -160,-375 -480,-375 -299,0 -610,107 -934,322l-395 -803c153,-118 365,-221 635,-309 269,-87 536,-131 799,-131 469,0 839,122 1108,368 270,246 405,583 405,1013l0 2085 -1039 0 0 -204 13 -210 -13 0c-110,153 -256,274 -438,362 -182,87 -372,131 -569,131 -324,0 -590,-98 -796,-296 -206,-197 -309,-443 -309,-736zm1125 -106c0,84 28,153 85,207 57,55 136,83 237,83 158,0 294,-64 408,-191 114,-127 171,-263 171,-408l0 -92 -105 0c-211,0 -396,32 -556,95 -160,64 -240,166 -240,306zm-64978 9262c123,83 239,125 349,125 272,0 454,-114 546,-342l66 -158 -1441 -3322 1289 0 500 1559 125 526 13 0c44,-214 81,-383 112,-506l428 -1579 1243 0 -1388 3750c-132,350 -326,608 -582,773 -257,164 -534,246 -832,246 -132,0 -263,-19 -395,-59 -131,-39 -230,-79 -296,-118l-99 -60 362 -835zm5414 -309l0 -4703 1730 0c482,0 869,106 1161,319 292,212 437,516 437,911 0,201 -48,393 -144,575 -97,182 -231,324 -402,425l0 13c250,74 436,211 556,411 121,199 181,415 181,648 0,478 -169,831 -506,1059 -338,228 -766,342 -1283,342l-1730 0zm1151 -2881l592 0c136,0 239,-42 309,-125 70,-84 105,-187 105,-309 0,-119 -36,-215 -108,-290 -72,-74 -181,-112 -326,-112l-572 0 0 836zm0 1894l691 0c158,0 280,-47 368,-141 88,-94 132,-212 132,-352 0,-140 -42,-256 -125,-346 -84,-89 -206,-134 -369,-134l-697 0 0 973zm2750 33c0,-215 59,-401 177,-559 119,-158 275,-279 471,-362 195,-83 398,-143 608,-181 211,-37 430,-56 658,-56l99 0 0 -59c0,-250 -161,-375 -481,-375 -298,0 -609,108 -934,323l-394 -803c153,-118 365,-221 634,-309 270,-88 536,-132 800,-132 469,0 838,123 1108,369 270,245 404,583 404,1013l0 2085 -1039 0 0 -204 13 -211 -13 0c-109,154 -255,275 -437,362 -182,88 -372,132 -569,132 -325,0 -590,-99 -796,-296 -206,-198 -309,-443 -309,-737zm1124 -105c0,83 29,152 86,207 57,55 136,82 237,82 158,0 294,-63 408,-190 114,-128 171,-264 171,-408l0 -92 -106 0c-210,0 -395,31 -555,95 -161,64 -241,166 -241,306zm2750 1059l0 -3388 1072 0 0 2434 763 0 0 -2434 1073 0 0 2434 763 0 0 -2434 1072 0 0 3388 -4743 0zm5868 -411c-369,-327 -553,-751 -553,-1273 0,-522 184,-950 553,-1283 368,-333 822,-500 1361,-500 544,0 1001,166 1372,497 370,331 556,760 556,1286 0,522 -184,946 -553,1273 -368,326 -824,490 -1368,490 -544,0 -1000,-164 -1368,-490zm598 -1273c0,246 75,443 224,592 149,149 331,224 546,224 215,0 397,-75 546,-224 149,-149 224,-346 224,-592 0,-250 -75,-452 -224,-605 -149,-154 -331,-231 -546,-231 -215,0 -397,77 -546,231 -149,153 -224,355 -224,605zm3118 1684l323 -3388 1315 0 500 1487 132 395 6 0c53,-150 99,-281 138,-395l500 -1487 1309 0 323 3388 -1092 0 -79 -1559 6 -579 -13 0c-66,193 -127,360 -184,500l-447 1184 -921 0 -447 -1184 -198 -500 -13 0 7 579 -79 1559 -1086 0zm5138 309c123,83 239,125 348,125 272,0 454,-114 546,-342l66 -158 -1440 -3322 1289 0 500 1559 125 526 13 0c44,-214 81,-383 112,-506l427 -1579 1244 0 -1388 3750c-132,350 -326,608 -583,773 -256,164 -533,246 -832,246 -131,0 -263,-19 -394,-59 -132,-39 -231,-79 -296,-118l-99 -60 362 -835zm6551 -1210l888 0 0 -1586 -585 0 0 125c0,588 -101,1075 -303,1461zm-1539 0l421 0c233,-395 349,-952 349,-1671l0 -816 2795 0 0 2487 487 0 0 1690 -1013 0 0 -789 -1986 0 0 789 -1053 0 0 -1690zm4894 490c-368,-327 -552,-751 -552,-1273 0,-522 184,-950 552,-1283 369,-333 822,-500 1362,-500 544,0 1001,166 1371,497 371,331 556,760 556,1286 0,522 -184,946 -552,1273 -369,326 -825,490 -1369,490 -543,0 -999,-164 -1368,-490zm599 -1273c0,246 74,443 223,592 150,149 332,224 546,224 215,0 397,-75 546,-224 149,-149 224,-346 224,-592 0,-250 -75,-452 -224,-605 -149,-154 -331,-231 -546,-231 -214,0 -396,77 -546,231 -149,153 -223,355 -223,605zm3118 1684l322 -3388 1316 0 500 1487 131 395 7 0c52,-150 98,-281 138,-395l500 -1487 1309 0 322 3388 -1092 0 -79 -1559 7 -579 -13 0c-66,193 -127,360 -184,500l-448 1184 -921 0 -447 -1184 -197 -500 -13 0 6 579 -79 1559 -1085 0zm5177 -3815l0 -888 1111 0 0 888 -1111 0zm-13 3815l0 -3388 1138 0 0 3388 -1138 0zm-46619 15787l0 -4703 3973 0 0 4703 -1151 0 0 -3723 -1671 0 0 3723 -1151 0zm4809 1316l0 -4704 1026 0 0 171 -13 217 13 0c232,-311 574,-467 1026,-467 460,0 830,164 1108,490 279,327 418,756 418,1287 0,530 -149,958 -447,1282 -298,325 -676,487 -1132,487 -324,0 -611,-108 -861,-322l-14 0c9,79 14,175 14,289l0 1270 -1138 0zm1105 -2987c0,220 58,409 174,569 116,160 280,240 490,240 189,0 347,-72 474,-217 127,-144 191,-342 191,-592 0,-250 -62,-451 -185,-605 -122,-153 -283,-230 -480,-230 -188,0 -346,70 -474,210 -127,141 -190,349 -190,625zm3420 1260c-368,-327 -552,-751 -552,-1273 0,-522 184,-949 552,-1283 369,-333 823,-500 1362,-500 544,0 1001,166 1371,497 371,331 556,760 556,1286 0,522 -184,946 -552,1273 -369,327 -825,490 -1368,490 -544,0 -1000,-163 -1369,-490zm599 -1273c0,246 75,443 224,592 149,149 331,224 546,224 214,0 396,-75 546,-224 149,-149 223,-346 223,-592 0,-250 -74,-452 -223,-605 -150,-154 -332,-230 -546,-230 -215,0 -397,76 -546,230 -149,153 -224,355 -224,605zm3079 0c0,-513 176,-935 529,-1266 353,-331 793,-503 1319,-517l0 -1138 1072 0 0 1138c526,14 966,186 1319,517 353,331 530,753 530,1266 0,509 -177,925 -530,1250 -353,324 -793,495 -1319,513l0 1237 -1072 0 0 -1237c-526,-18 -966,-189 -1319,-513 -353,-325 -529,-741 -529,-1250zm2920 868c215,-17 394,-104 536,-259 143,-156 214,-359 214,-609 0,-254 -71,-461 -214,-622 -142,-160 -321,-248 -536,-266l0 1756zm-1822 -868c0,250 71,453 214,609 142,155 321,242 536,259l0 -1756c-215,18 -394,106 -536,266 -143,161 -214,368 -214,622zm4059 -13c0,-509 160,-931 480,-1266 320,-336 748,-504 1283,-504 486,0 869,153 1147,458 279,304 418,698 418,1180 0,79 -9,198 -26,356l-2138 0c39,197 133,347 280,450 146,103 316,155 509,155 281,0 592,-114 934,-342l421 796c-179,153 -400,274 -661,361 -261,88 -523,132 -786,132 -574,0 -1028,-175 -1361,-526 -334,-351 -500,-768 -500,-1250zm1190 -428l1013 0c0,-144 -42,-265 -128,-361 -85,-97 -198,-145 -339,-145 -289,0 -471,169 -546,506zm2539 428c0,-482 170,-898 510,-1247 340,-348 799,-523 1378,-523 255,0 504,43 747,129 243,85 444,213 602,384l-480 764c-228,-220 -494,-329 -796,-329 -255,0 -453,80 -596,240 -142,160 -213,350 -213,569 0,223 74,420 223,589 149,168 358,253 625,253 303,0 612,-136 928,-408l414 796c-167,171 -380,307 -641,408 -261,101 -532,151 -813,151 -579,0 -1038,-173 -1378,-520 -340,-346 -510,-765 -510,-1256zm3835 -2118l0 -888 1112 0 0 888 -1112 0zm-13 3815l0 -3388 1138 0 0 3388 -1138 0zm3559 -3624c-351,0 -647,-90 -888,-270 -241,-180 -362,-426 -362,-737l0 -72 842 0 0 79c0,127 41,223 122,289 81,66 176,99 286,99 105,0 199,-33 283,-99 83,-66 125,-162 125,-289l0 -79 835 0 0 72c0,311 -120,557 -362,737 -241,180 -535,270 -881,270zm-1658 3624l0 -3388 1072 0 0 1494c0,109 -4,221 -13,335l13 0c27,-66 88,-177 185,-335l940 -1494 1105 0 0 3388 -1072 0 0 -1480c0,-140 5,-254 13,-342l-13 0c-13,35 -74,147 -184,335l-941 1487 -1105 0zm4065 0l0 -3388 1138 0 0 1198 1046 0 0 -1198 1138 0 0 3388 -1138 0 0 -1237 -1046 0 0 1237 -1138 0zm3895 -1697c0,-509 160,-931 480,-1266 320,-336 748,-504 1283,-504 486,0 869,153 1147,458 279,304 418,698 418,1180 0,79 -9,198 -26,356l-2138 0c39,197 133,347 280,450 146,103 316,155 509,155 281,0 592,-114 934,-342l421 796c-179,153 -400,274 -661,361 -261,88 -523,132 -786,132 -574,0 -1028,-175 -1361,-526 -334,-351 -500,-768 -500,-1250zm1190 -428l1013 0c0,-144 -42,-265 -128,-361 -85,-97 -198,-145 -339,-145 -289,0 -471,169 -546,506zm-36883 10019l0 -3388 3283 0 0 3388 -1138 0 0 -2434 -1007 0 0 2434 -1138 0zm4046 1315l0 -4703 1026 0 0 171 -13 217 13 0c232,-311 574,-467 1026,-467 461,0 830,163 1109,490 278,327 417,755 417,1286 0,531 -149,958 -447,1283 -298,324 -675,487 -1131,487 -325,0 -612,-108 -862,-323l-13 0c8,79 13,176 13,290l0 1269 -1138 0zm1105 -2986c0,219 58,409 174,569 116,160 280,240 490,240 189,0 347,-72 474,-217 127,-145 191,-342 191,-592 0,-250 -62,-452 -184,-605 -123,-154 -283,-231 -481,-231 -188,0 -346,71 -473,211 -127,140 -191,349 -191,625zm3059 1671l0 -3388 1072 0 0 1493c0,110 -4,222 -13,336l13 0c26,-66 88,-178 184,-336l941 -1493 1105 0 0 3388 -1072 0 0 -1480c0,-141 4,-255 13,-342l-13 0c-13,35 -75,146 -184,335l-941 1487 -1105 0zm3914 -2026c0,-685 148,-1222 444,-1612 296,-390 777,-699 1444,-928l1098 -368 322 914 -1276 408c-180,62 -325,119 -437,171 -112,53 -218,135 -319,247 -101,112 -154,244 -158,398l13 0c254,-215 586,-322 993,-322 448,0 803,143 1066,431 263,287 395,661 395,1121 0,478 -160,872 -481,1181 -320,309 -743,464 -1269,464 -596,0 -1051,-191 -1365,-573 -314,-381 -470,-892 -470,-1532zm1131 480c0,210 64,379 191,506 127,127 283,191 467,191 184,0 340,-64 467,-191 127,-127 191,-296 191,-506 0,-215 -64,-388 -191,-520 -127,-131 -283,-197 -467,-197 -184,0 -340,66 -467,197 -127,132 -191,305 -191,520zm3046 1546l0 -3388 1072 0 0 1493c0,110 -4,222 -13,336l13 0c26,-66 88,-178 184,-336l941 -1493 1105 0 0 3388 -1072 0 0 -1480c0,-141 4,-255 13,-342l-13 0c-14,35 -75,146 -185,335l-940 1487 -1105 0zm4065 1315l0 -4703 1026 0 0 171 -13 217 13 0c232,-311 575,-467 1026,-467 461,0 830,163 1109,490 278,327 417,755 417,1286 0,531 -149,958 -447,1283 -298,324 -675,487 -1131,487 -325,0 -612,-108 -862,-323l-13 0c8,79 13,176 13,290l0 1269 -1138 0zm1105 -2986c0,219 58,409 174,569 117,160 280,240 490,240 189,0 347,-72 474,-217 127,-145 191,-342 191,-592 0,-250 -62,-452 -184,-605 -123,-154 -283,-231 -481,-231 -188,0 -346,71 -473,211 -127,140 -191,349 -191,625zm2815 717c0,-215 60,-401 178,-559 118,-158 275,-279 470,-362 195,-83 398,-144 609,-181 210,-37 430,-56 658,-56l98 0 0 -59c0,-250 -160,-375 -480,-375 -298,0 -609,107 -934,322l-395 -802c154,-119 365,-222 635,-309 270,-88 536,-132 799,-132 470,0 839,123 1109,368 269,246 404,584 404,1013l0 2086 -1039 0 0 -204 13 -211 -13 0c-110,154 -255,274 -437,362 -182,88 -372,132 -569,132 -325,0 -590,-99 -796,-296 -207,-198 -310,-443 -310,-737zm1125 -105c0,83 29,152 86,207 57,55 136,82 237,82 157,0 293,-64 407,-191 114,-127 171,-263 171,-408l0 -92 -105 0c-210,0 -396,32 -556,96 -160,63 -240,165 -240,306zm2750 1059l0 -3388 1138 0 0 1197 1046 0 0 -1197 1138 0 0 3388 -1138 0 0 -1237 -1046 0 0 1237 -1138 0zm4085 0l0 -3388 1138 0 0 1197 1046 0 0 -1197 1138 0 0 3388 -1138 0 0 -1237 -1046 0 0 1237 -1138 0zm3762 0l685 -1027 157 -203 0 -7c-184,-92 -332,-229 -444,-411 -111,-182 -167,-381 -167,-595 0,-356 109,-635 329,-839 219,-204 517,-306 894,-306l1776 0 0 3388 -1138 0 0 -1033 -237 0 -651 1033 -1204 0zm1823 -1790l269 0 0 -894 -276 0c-303,0 -454,145 -454,434 0,307 154,460 461,460zm3815 1790l0 -3388 1848 0c351,0 631,77 839,230 208,154 312,373 312,658 0,149 -35,291 -105,424 -70,134 -166,238 -289,313l0 6c180,57 313,155 401,293 88,138 132,291 132,457 0,347 -122,601 -366,763 -243,162 -551,244 -924,244l-1848 0zm1138 -2053l427 0c101,0 177,-31 227,-95 51,-64 76,-144 76,-240 0,-88 -26,-159 -79,-214 -53,-55 -131,-82 -237,-82l-414 0 0 631zm0 1342l500 0c114,0 203,-33 266,-98 64,-66 96,-145 96,-237 0,-97 -31,-178 -93,-244 -61,-65 -149,-98 -263,-98l-506 0 0 677zm2598 -3105l0 -888 1112 0 0 888 -1112 0zm-13 3816l0 -3388 1138 0 0 3388 -1138 0zm3151 -902l888 0 0 -1585 -586 0 0 125c0,588 -100,1075 -302,1460zm-1539 0l421 0c232,-394 348,-951 348,-1670l0 -816 2796 0 0 2486 487 0 0 1691 -1013 0 0 -789 -1987 0 0 789 -1052 0 0 -1691zm-46981 8795l0 -3387 1138 0 0 1190 323 0 671 -1190 1236 0 -993 1611 0 13 1131 1763 -1296 0 -716 -1243 -356 0 0 1243 -1138 0zm3888 0l0 -3387 1848 0c351,0 631,76 839,230 208,153 312,373 312,658 0,149 -35,290 -105,424 -70,134 -166,238 -289,312l0 7c180,57 313,154 401,293 88,138 132,290 132,457 0,346 -122,601 -365,763 -244,162 -552,243 -925,243l-1848 0zm1138 -2052l427 0c101,0 177,-32 227,-95 51,-64 76,-144 76,-241 0,-87 -26,-159 -79,-213 -53,-55 -131,-83 -237,-83l-414 0 0 632zm0 1342l500 0c114,0 203,-33 266,-99 64,-66 96,-145 96,-237 0,-96 -31,-177 -93,-243 -61,-66 -149,-99 -263,-99l-506 0 0 678z"/>
   <path class="fil0" d="M7815 43217c0,-215 59,-401 177,-559 119,-158 275,-278 471,-362 195,-83 398,-143 608,-180 211,-38 430,-56 658,-56l99 0 0 -59c0,-250 -161,-375 -481,-375 -298,0 -609,107 -934,322l-394 -803c153,-118 365,-221 634,-309 270,-88 536,-131 800,-131 469,0 838,122 1108,368 270,246 405,583 405,1013l0 2085 -1040 0 0 -204 13 -210 -13 0c-109,153 -255,274 -437,362 -182,87 -372,131 -569,131 -325,0 -590,-99 -796,-296 -206,-197 -309,-443 -309,-737zm1125 -105c0,83 28,153 85,207 57,55 136,83 237,83 158,0 294,-64 408,-191 114,-127 171,-263 171,-408l0 -92 -106 0c-210,0 -395,32 -555,95 -160,64 -240,166 -240,306zm2749 2375l0 -4703 1026 0 0 171 -13 217 13 0c233,-312 575,-467 1026,-467 461,0 830,163 1109,490 278,326 418,755 418,1286 0,530 -150,958 -448,1282 -298,325 -675,487 -1131,487 -325,0 -612,-107 -862,-322l-13 0c9,79 13,175 13,289l0 1270 -1138 0zm1105 -2987c0,220 58,409 175,569 116,160 279,240 490,240 188,0 346,-72 473,-217 127,-144 191,-342 191,-592 0,-250 -61,-451 -184,-605 -123,-153 -283,-230 -480,-230 -189,0 -347,70 -474,211 -127,140 -191,348 -191,624zm3776 1671l0 -2434 -1026 0 0 -953 3197 0 0 953 -1033 0 0 2434 -1138 0zm2651 0l0 -3387 1072 0 0 1493c0,109 -4,221 -13,335l13 0c26,-66 88,-177 184,-335l941 -1493 1105 0 0 3387 -1072 0 0 -1480c0,-140 4,-254 13,-342l-13 0c-13,35 -75,147 -184,336l-941 1486 -1105 0zm4065 1316l0 -4703 1026 0 0 171 -13 217 13 0c233,-312 575,-467 1026,-467 461,0 830,163 1109,490 278,326 418,755 418,1286 0,530 -150,958 -448,1282 -298,325 -675,487 -1131,487 -325,0 -612,-107 -862,-322l-13 0c9,79 13,175 13,289l0 1270 -1138 0zm1105 -2987c0,220 58,409 174,569 117,160 280,240 491,240 188,0 346,-72 473,-217 127,-144 191,-342 191,-592 0,-250 -61,-451 -184,-605 -123,-153 -283,-230 -480,-230 -189,0 -347,70 -474,211 -127,140 -191,348 -191,624zm5953 770l888 0 0 -1585 -585 0 0 125c0,587 -101,1074 -303,1460zm-1539 0l421 0c233,-395 349,-952 349,-1671l0 -815 2795 0 0 2486 487 0 0 1691 -1013 0 0 -790 -1986 0 0 790 -1053 0 0 -1691zm4894 490c-368,-327 -552,-751 -552,-1273 0,-522 184,-949 552,-1282 368,-334 822,-500 1362,-500 544,0 1001,165 1371,496 371,331 556,760 556,1286 0,522 -184,946 -552,1273 -369,327 -825,490 -1369,490 -543,0 -1000,-163 -1368,-490zm599 -1273c0,246 74,443 223,592 149,149 331,224 546,224 215,0 397,-75 546,-224 149,-149 224,-346 224,-592 0,-250 -75,-451 -224,-605 -149,-153 -331,-230 -546,-230 -215,0 -397,77 -546,230 -149,154 -223,355 -223,605zm-32719 9578l0 -3717 -1428 0 0 -987 4006 0 0 987 -1427 0 0 3717 -1151 0zm3157 0l0 -4704 1151 0 0 3724 1632 0 0 -3724 1151 0 0 3724 579 0 0 1901 -1020 0 0 -921 -3493 0zm6749 0l0 -3388 3283 0 0 3388 -1138 0 0 -2434 -1007 0 0 2434 -1138 0zm4059 -3815l0 -889 1111 0 0 889 -1111 0zm-13 3815l0 -3388 1138 0 0 3388 -1138 0zm1710 -1697c0,-483 170,-898 510,-1247 340,-348 799,-523 1378,-523 254,0 503,43 746,128 244,86 444,214 602,385l-480 763c-228,-219 -493,-329 -796,-329 -254,0 -453,80 -595,241 -143,160 -214,349 -214,569 0,223 75,419 224,588 149,169 357,253 625,253 302,0 611,-136 927,-407l415 796c-167,171 -381,307 -642,407 -261,101 -531,152 -812,152 -579,0 -1038,-173 -1378,-520 -340,-346 -510,-765 -510,-1256zm3572 1730l0 -994c70,-8 131,-23 184,-42 53,-20 110,-57 171,-112 61,-55 111,-128 148,-221 37,-92 69,-220 95,-384 27,-165 40,-359 40,-582l0 -1086 2776 0 0 3388 -1138 0 0 -2487 -566 0 0 191c0,746 -129,1320 -388,1723 -259,404 -699,606 -1322,606zm3855 -33l684 -1026 158 -204 0 -7c-185,-92 -333,-229 -444,-411 -112,-182 -168,-380 -168,-595 0,-355 109,-635 329,-839 219,-204 517,-306 894,-306l1776 0 0 3388 -1138 0 0 -1033 -236 0 -652 1033 -1203 0zm1822 -1789l269 0 0 -895 -276 0c-303,0 -454,145 -454,434 0,307 154,461 461,461zm3815 3104l0 -4703 1026 0 0 171 -13 217 13 0c233,-311 575,-467 1026,-467 461,0 830,164 1109,490 278,327 417,756 417,1286 0,531 -149,958 -447,1283 -298,324 -675,487 -1131,487 -325,0 -612,-108 -862,-323l-13 0c9,79 13,176 13,290l0 1269 -1138 0zm1105 -2986c0,219 58,409 174,569 117,160 280,240 490,240 189,0 347,-72 474,-217 127,-145 191,-342 191,-592 0,-250 -62,-452 -184,-605 -123,-154 -283,-230 -481,-230 -188,0 -346,70 -473,210 -127,140 -191,349 -191,625zm2868 -26c0,-509 160,-931 480,-1267 320,-335 748,-503 1283,-503 487,0 869,153 1148,457 278,305 418,699 418,1181 0,79 -9,197 -27,355l-2138 0c40,198 133,348 280,451 147,103 317,154 510,154 280,0 592,-114 934,-342l421 796c-180,154 -400,274 -661,362 -261,88 -523,132 -786,132 -575,0 -1029,-176 -1362,-527 -333,-350 -500,-767 -500,-1249zm1191 -428l1013 0c0,-145 -43,-265 -129,-362 -85,-96 -198,-144 -338,-144 -290,0 -472,168 -546,506zm2585 2125l322 -3388 1316 0 500 1487 131 394 7 0c53,-149 99,-280 138,-394l500 -1487 1309 0 322 3388 -1092 0 -79 -1559 7 -579 -13 0c-66,193 -127,360 -184,500l-448 1184 -921 0 -447 -1184 -197 -500 -13 0 6 579 -79 1559 -1085 0zm5526 -411c-369,-327 -553,-751 -553,-1273 0,-522 184,-950 553,-1283 368,-333 822,-500 1361,-500 544,0 1001,166 1372,497 370,331 556,760 556,1286 0,522 -185,946 -553,1273 -368,326 -825,490 -1368,490 -544,0 -1000,-164 -1368,-490zm598 -1273c0,245 75,443 224,592 149,149 331,223 546,223 215,0 397,-74 546,-223 149,-149 223,-347 223,-592 0,-250 -74,-452 -223,-605 -149,-154 -331,-231 -546,-231 -215,0 -397,77 -546,231 -149,153 -224,355 -224,605zm3263 1684l0 -3388 1138 0 0 1197 1046 0 0 -1197 1138 0 0 3388 -1138 0 0 -1237 -1046 0 0 1237 -1138 0zm4828 0l0 -2434 -1026 0 0 -954 3197 0 0 954 -1033 0 0 2434 -1138 0zm2684 309c123,83 239,125 349,125 271,0 453,-114 546,-342l65 -158 -1440 -3322 1289 0 500 1559 125 526 13 0c44,-215 81,-383 112,-506l428 -1579 1243 0 -1388 3750c-132,350 -326,608 -582,773 -257,164 -534,246 -833,246 -131,0 -263,-20 -394,-59 -132,-39 -230,-79 -296,-118l-99 -60 362 -835zm-54835 15478l902 -1513 177 -283 0 -13c-504,-281 -756,-746 -756,-1394 0,-347 79,-640 237,-879 157,-239 368,-409 631,-510 193,-74 498,-111 914,-111l1638 0 0 4703 -1151 0 0 -1585 -421 0 -888 1585 -1283 0zm2092 -2539l500 0 0 -1178 -388 0c-259,0 -443,44 -553,132 -105,88 -157,235 -157,441 0,403 199,605 598,605zm2487 2539l0 -3388 1138 0 0 1191 322 0 671 -1191 1237 0 -994 1612 0 13 1132 1763 -1296 0 -717 -1243 -355 0 0 1243 -1138 0zm3900 -3815l0 -888 1112 0 0 888 -1112 0zm-13 3815l0 -3388 1138 0 0 3388 -1138 0zm1711 -1697c0,-483 170,-898 509,-1247 340,-348 800,-523 1378,-523 255,0 504,43 747,129 243,85 444,213 602,384l-480 763c-228,-219 -494,-328 -796,-328 -254,0 -453,80 -595,240 -143,160 -214,349 -214,569 0,223 74,420 223,588 150,169 358,254 625,254 303,0 612,-136 928,-408l414 796c-166,171 -380,307 -641,408 -261,101 -532,151 -813,151 -578,0 -1038,-173 -1378,-520 -339,-346 -509,-765 -509,-1256zm3821 1697l0 -3388 1138 0 0 1197 1046 0 0 -1197 1138 0 0 3388 -1138 0 0 -1237 -1046 0 0 1237 -1138 0zm3842 -954c0,-215 59,-401 178,-559 118,-158 275,-279 470,-362 195,-83 398,-143 608,-181 211,-37 430,-56 658,-56l99 0 0 -59c0,-250 -160,-375 -480,-375 -299,0 -610,108 -934,323l-395 -803c153,-118 365,-221 635,-309 269,-88 536,-132 799,-132 469,0 839,123 1108,369 270,245 405,583 405,1013l0 2085 -1040 0 0 -204 14 -210 -14 0c-109,153 -255,274 -437,361 -182,88 -372,132 -569,132 -324,0 -590,-99 -796,-296 -206,-197 -309,-443 -309,-737zm1125 -105c0,83 28,152 85,207 57,55 136,82 237,82 158,0 294,-63 408,-190 114,-128 171,-264 171,-408l0 -92 -105 0c-211,0 -396,31 -556,95 -160,64 -240,166 -240,306zm5367 20c-315,0 -586,-92 -812,-277 -226,-184 -339,-480 -339,-888l0 -1184 1118 0 0 967c0,303 145,454 435,454 188,0 359,-55 513,-164l0 -1257 1138 0 0 3388 -1138 0 0 -1059 6 -158 -13 0c-263,118 -566,178 -908,178zm2816 1039l0 -3388 1072 0 0 1493c0,110 -4,222 -13,336l13 0c26,-66 88,-178 184,-336l941 -1493 1105 0 0 3388 -1072 0 0 -1480c0,-140 4,-254 13,-342l-13 0c-13,35 -75,147 -184,335l-941 1487 -1105 0zm3874 -1697c0,-483 170,-898 510,-1247 340,-348 799,-523 1378,-523 255,0 503,43 747,129 243,85 444,213 602,384l-481 763c-228,-219 -493,-328 -795,-328 -255,0 -453,80 -596,240 -142,160 -214,349 -214,569 0,223 75,420 224,588 149,169 357,254 625,254 303,0 612,-136 927,-408l415 796c-167,171 -381,307 -641,408 -261,101 -532,151 -813,151 -579,0 -1038,-173 -1378,-520 -340,-346 -510,-765 -510,-1256zm4565 1697l0 -2434 -1026 0 0 -954 3197 0 0 954 -1033 0 0 2434 -1138 0zm2651 0l0 -3388 1138 0 0 1191 323 0 671 -1191 1236 0 -993 1612 0 13 1131 1763 -1296 0 -717 -1243 -355 0 0 1243 -1138 0zm3618 -954c0,-215 59,-401 178,-559 118,-158 275,-279 470,-362 195,-83 398,-143 609,-181 210,-37 429,-56 657,-56l99 0 0 -59c0,-250 -160,-375 -480,-375 -298,0 -610,108 -934,323l-395 -803c154,-118 365,-221 635,-309 270,-88 536,-132 799,-132 469,0 839,123 1109,369 269,245 404,583 404,1013l0 2085 -1039 0 0 -204 13 -210 -13 0c-110,153 -256,274 -438,361 -182,88 -371,132 -569,132 -324,0 -590,-99 -796,-296 -206,-197 -309,-443 -309,-737zm1125 -105c0,83 29,152 86,207 57,55 136,82 236,82 158,0 294,-63 408,-190 114,-128 171,-264 171,-408l0 -92 -105 0c-210,0 -396,31 -556,95 -160,64 -240,166 -240,306zm-42836 7269c0,-514 177,-936 530,-1267 353,-331 792,-503 1319,-516l0 -1138 1072 0 0 1138c526,13 966,185 1319,516 353,331 529,753 529,1267 0,508 -176,925 -529,1249 -353,325 -793,496 -1319,514l0 1236 -1072 0 0 -1236c-527,-18 -966,-189 -1319,-514 -353,-324 -530,-741 -530,-1249zm2921 868c215,-18 393,-104 536,-260 142,-156 214,-358 214,-608 0,-255 -72,-462 -214,-622 -143,-160 -321,-249 -536,-266l0 1756zm-1822 -868c0,250 71,452 213,608 143,156 322,242 537,260l0 -1756c-215,17 -394,106 -537,266 -142,160 -213,367 -213,622zm4006 730c0,-215 59,-402 177,-559 119,-158 275,-279 471,-362 195,-84 398,-144 608,-181 211,-37 430,-56 658,-56l99 0 0 -59c0,-250 -161,-375 -481,-375 -298,0 -609,107 -934,322l-394 -802c153,-119 365,-222 634,-309 270,-88 536,-132 800,-132 469,0 838,123 1108,368 270,246 405,584 405,1013l0 2086 -1040 0 0 -204 13 -211 -13 0c-109,154 -255,274 -437,362 -182,88 -372,132 -569,132 -325,0 -590,-99 -796,-296 -206,-198 -309,-443 -309,-737zm1124 -106c0,84 29,153 86,208 57,55 136,82 237,82 158,0 294,-64 408,-191 114,-127 171,-263 171,-408l0 -92 -106 0c-210,0 -395,32 -555,96 -161,63 -241,165 -241,305zm2559 -638c0,-482 170,-898 510,-1246 340,-349 799,-523 1378,-523 255,0 503,43 747,128 243,86 444,214 602,385l-480 763c-229,-219 -494,-329 -796,-329 -255,0 -453,80 -596,240 -142,160 -214,350 -214,569 0,224 75,420 224,589 149,169 357,253 625,253 303,0 612,-136 928,-408l414 796c-167,171 -380,307 -641,408 -261,101 -532,152 -813,152 -579,0 -1038,-174 -1378,-520 -340,-347 -510,-765 -510,-1257zm3579 744c0,-215 59,-402 177,-559 119,-158 276,-279 471,-362 195,-84 398,-144 608,-181 211,-37 430,-56 658,-56l99 0 0 -59c0,-250 -161,-375 -481,-375 -298,0 -609,107 -934,322l-394 -802c153,-119 365,-222 634,-309 270,-88 536,-132 800,-132 469,0 838,123 1108,368 270,246 405,584 405,1013l0 2086 -1040 0 0 -204 13 -211 -13 0c-109,154 -255,274 -437,362 -182,88 -372,132 -569,132 -325,0 -590,-99 -796,-296 -206,-198 -309,-443 -309,-737zm1125 -106c0,84 28,153 85,208 57,55 136,82 237,82 158,0 294,-64 408,-191 114,-127 171,-263 171,-408l0 -92 -106 0c-210,0 -395,32 -555,96 -160,63 -240,165 -240,305zm3999 158l888 0 0 -1585 -585 0 0 125c0,588 -101,1074 -303,1460zm-1539 0l421 0c232,-394 348,-951 348,-1670l0 -816 2796 0 0 2486 487 0 0 1691 -1013 0 0 -789 -1987 0 0 789 -1052 0 0 -1691zm4585 -2914l0 -888 1111 0 0 888 -1111 0zm-14 3816l0 -3388 1138 0 0 3388 -1138 0zm1902 0l0 -3388 1848 0c351,0 630,77 839,230 208,154 312,373 312,658 0,149 -35,290 -105,424 -70,134 -167,238 -290,313l0 6c180,57 314,155 402,293 87,138 131,290 131,457 0,347 -121,601 -365,763 -243,162 -551,244 -924,244l-1848 0zm1137 -2053l428 0c101,0 177,-32 227,-95 50,-64 76,-144 76,-240 0,-88 -27,-159 -79,-214 -53,-55 -132,-82 -237,-82l-415 0 0 631zm0 1342l500 0c114,0 203,-33 267,-99 63,-65 95,-144 95,-236 0,-97 -31,-178 -92,-244 -61,-66 -149,-98 -263,-98l-507 0 0 677zm4974 711l0 -2434 -1027 0 0 -954 3197 0 0 954 -1032 0 0 2434 -1138 0zm2368 -954c0,-215 59,-402 177,-559 119,-158 275,-279 471,-362 195,-84 398,-144 608,-181 211,-37 430,-56 658,-56l99 0 0 -59c0,-250 -161,-375 -481,-375 -298,0 -609,107 -934,322l-395 -802c154,-119 366,-222 635,-309 270,-88 536,-132 800,-132 469,0 838,123 1108,368 270,246 404,584 404,1013l0 2086 -1039 0 0 -204 13 -211 -13 0c-109,154 -255,274 -437,362 -182,88 -372,132 -569,132 -325,0 -590,-99 -796,-296 -206,-198 -309,-443 -309,-737zm1124 -106c0,84 29,153 86,208 57,55 136,82 237,82 158,0 294,-64 408,-191 114,-127 171,-263 171,-408l0 -92 -106 0c-210,0 -395,32 -555,96 -161,63 -241,165 -241,305zm4395 1060l0 -3388 3282 0 0 3388 -1138 0 0 -2434 -1006 0 0 2434 -1138 0zm4407 -412c-369,-326 -553,-751 -553,-1272 0,-522 184,-950 553,-1283 368,-333 822,-500 1361,-500 544,0 1001,165 1372,497 371,331 556,759 556,1286 0,521 -184,946 -553,1272 -368,327 -824,491 -1368,491 -544,0 -1000,-164 -1368,-491zm598 -1272c0,245 75,442 224,592 149,149 331,223 546,223 215,0 397,-74 546,-223 149,-150 224,-347 224,-592 0,-250 -75,-452 -224,-606 -149,-153 -331,-230 -546,-230 -215,0 -397,77 -546,230 -149,154 -224,356 -224,606zm4447 782l888 0 0 -1585 -585 0 0 125c0,588 -101,1074 -303,1460zm-1539 0l421 0c232,-394 349,-951 349,-1670l0 -816 2795 0 0 2486 487 0 0 1691 -1013 0 0 -789 -1987 0 0 789 -1052 0 0 -1691zm4572 902l0 -3388 1848 0c351,0 631,77 839,230 208,154 312,373 312,658 0,149 -35,290 -105,424 -70,134 -167,238 -289,313l0 6c179,57 313,155 401,293 88,138 131,290 131,457 0,347 -121,601 -365,763 -243,162 -551,244 -924,244l-1848 0zm1138 -2053l427 0c101,0 177,-32 227,-95 51,-64 76,-144 76,-240 0,-88 -27,-159 -79,-214 -53,-55 -132,-82 -237,-82l-414 0 0 631zm0 1342l500 0c114,0 202,-33 266,-99 64,-65 95,-144 95,-236 0,-97 -30,-178 -92,-244 -61,-66 -149,-98 -263,-98l-506 0 0 677zm2598 -3105l0 -888 1112 0 0 888 -1112 0zm-13 3816l0 -3388 1138 0 0 3388 -1138 0zm1901 1315l0 -4703 1026 0 0 171 -13 217 13 0c233,-311 575,-467 1026,-467 461,0 830,163 1109,490 278,327 417,755 417,1286 0,531 -149,958 -447,1283 -298,324 -675,487 -1131,487 -325,0 -612,-108 -862,-323l-13 0c9,79 13,176 13,290l0 1269 -1138 0zm1105 -2986c0,219 58,409 174,569 117,160 280,240 490,240 189,0 347,-73 474,-217 127,-145 191,-342 191,-592 0,-250 -62,-452 -184,-605 -123,-154 -283,-231 -481,-231 -188,0 -346,70 -473,211 -127,140 -191,348 -191,625zm2993 -1553l0 -1578 822 0 0 1578 -822 0zm1217 3224l684 -1027 158 -204 0 -6c-184,-92 -332,-229 -444,-411 -112,-182 -168,-381 -168,-596 0,-355 110,-634 329,-838 219,-204 517,-306 895,-306l1776 0 0 3388 -1138 0 0 -1033 -237 0 -651 1033 -1204 0zm1822 -1790l270 0 0 -894 -277 0c-302,0 -453,144 -453,434 0,307 153,460 460,460z"/>
  </g>
 </g>
</svg>
