<?xml version="1.0" encoding="UTF-8"?>
<!DOCTYPE svg PUBLIC "-//W3C//DTD SVG 1.1//EN" "http://www.w3.org/Graphics/SVG/1.1/DTD/svg11.dtd">
<!-- Creator: CorelDRAW X7 -->
<svg xmlns="http://www.w3.org/2000/svg" xml:space="preserve" width="95.8027mm" height="15.9324mm" version="1.1" style="shape-rendering:geometricPrecision; text-rendering:geometricPrecision; image-rendering:optimizeQuality; fill-rule:evenodd; clip-rule:evenodd"
viewBox="0 0 4642 772"
 xmlns:xlink="http://www.w3.org/1999/xlink">
 <defs>
  <style type="text/css">
   <![CDATA[
    .fil0 {fill:#E31E24}
    .fil1 {fill:#FEFEFE;fill-rule:nonzero}
   ]]>
  </style>
 </defs>
 <g id="Слой_x0020_1">
  <metadata id="CorelCorpID_0Corel-Layer"/>
  <path class="fil0" d="M118 0l4407 0c64,0 117,53 117,118l0 536c0,65 -53,118 -117,118l-4407 0c-65,0 -118,-53 -118,-118l0 -536c0,-65 53,-118 118,-118z"/>
  <path class="fil1" d="M1019 368c-15,8 -33,12 -55,12 -21,0 -39,-4 -54,-12 -15,-8 -27,-20 -36,-34 -8,-15 -15,-32 -19,-50 -4,-19 -6,-40 -6,-62 0,-23 2,-44 6,-62 4,-18 11,-35 19,-50 9,-14 21,-26 36,-34 15,-8 33,-12 54,-12 22,0 40,4 55,12 15,8 27,20 36,34 8,15 14,32 18,50 4,18 6,39 6,62 0,22 -2,43 -6,62 -4,18 -10,35 -18,50 -9,14 -21,26 -36,34zm-93 -146c0,60 13,90 38,90 26,0 38,-30 38,-90 0,-60 -12,-89 -38,-89 -25,0 -38,29 -38,89zm194 12c0,-21 3,-42 9,-61 7,-20 16,-38 28,-55 11,-16 27,-29 46,-39 19,-10 39,-15 62,-15 27,0 49,5 68,14l-20 64c-4,-2 -10,-4 -19,-6 -9,-2 -17,-3 -23,-3 -33,0 -55,17 -66,50l1 0c4,-2 10,-5 18,-7 9,-2 17,-3 24,-3 30,0 54,10 72,31 19,21 28,45 28,73 0,28 -10,52 -29,72 -19,21 -44,31 -76,31 -33,0 -62,-12 -87,-38 -24,-25 -36,-61 -36,-108zm123 78c10,0 17,-3 23,-10 5,-7 8,-15 8,-24 0,-13 -4,-23 -11,-32 -8,-9 -20,-13 -35,-13 -21,0 -32,6 -32,18 0,17 5,32 15,43 10,12 21,18 32,18zm139 -78c0,-21 4,-42 10,-61 6,-20 16,-38 27,-55 12,-16 28,-29 47,-39 18,-10 39,-15 62,-15 27,0 49,5 68,14l-20 64c-4,-2 -10,-4 -19,-6 -9,-2 -17,-3 -23,-3 -33,0 -55,17 -66,50l1 0c3,-2 10,-5 18,-7 9,-2 16,-3 24,-3 30,0 54,10 72,31 18,21 28,45 28,73 0,28 -10,52 -29,72 -19,21 -44,31 -76,31 -33,0 -62,-12 -87,-38 -24,-25 -37,-61 -37,-108zm124 78c9,0 17,-3 23,-10 5,-7 8,-15 8,-24 0,-13 -4,-23 -11,-32 -8,-9 -20,-13 -35,-13 -21,0 -32,6 -32,18 0,17 5,32 15,43 10,12 21,18 32,18zm254 63l108 -214c3,-6 6,-12 9,-16 3,-5 5,-8 7,-9l2 -3 0 -1c-2,1 -8,2 -18,2l-121 0 0 -64 219 0 0 52 -128 253 -78 0zm211 -74l0 -45 118 -186 91 0 0 169 37 0 0 62 -37 0 0 74 -74 0 0 -74 -135 0zm76 -62l59 0 0 -68 3 -34 -1 0c-4,12 -9,23 -15,31l-46 70 0 1zm197 101l36 -58c19,19 40,28 63,28 13,0 24,-3 32,-9 7,-6 11,-13 11,-22 0,-22 -19,-33 -57,-33l-21 0 -16 -37 40 -48c5,-5 9,-10 13,-15 5,-5 8,-8 10,-10l4 -4 0 0c-7,1 -16,2 -29,2l-73 0 0 -64 193 0 0 46 -62 71c22,5 40,16 53,32 14,16 20,35 20,57 0,28 -9,53 -29,73 -20,21 -48,31 -84,31 -43,0 -78,-13 -104,-40zm359 0l35 -58c20,19 40,28 62,28 11,0 21,-4 30,-10 9,-7 13,-16 13,-28 0,-12 -4,-21 -14,-28 -9,-7 -20,-10 -35,-10 -13,0 -27,3 -41,10l-39 -15 12 -159 171 0 0 64 -106 0 -2 28 -1 12 0 0c6,-2 13,-3 23,-3 34,0 61,9 80,28 19,19 29,43 29,72 0,32 -11,58 -32,78 -21,21 -48,31 -81,31 -42,0 -77,-13 -104,-40zm251 -55c0,-11 3,-22 8,-34 6,-11 12,-19 17,-25 6,-6 11,-11 17,-15 -18,-17 -28,-36 -28,-59 0,-24 9,-45 26,-62 18,-17 43,-26 77,-26 30,0 54,8 74,24 19,16 29,38 29,65 0,22 -10,46 -30,70 24,16 36,38 36,64 0,25 -10,47 -30,66 -20,18 -47,27 -83,27 -35,0 -63,-9 -83,-28 -20,-18 -30,-41 -30,-67zm136 -89c8,-12 11,-24 11,-38 0,-8 -3,-15 -8,-20 -6,-5 -14,-8 -24,-8 -9,0 -16,2 -21,7 -4,4 -7,10 -7,17 0,9 4,17 13,23 8,6 20,12 36,19zm-60 83c0,10 4,18 11,25 7,7 16,10 26,10 11,0 20,-2 27,-8 7,-5 10,-13 10,-23 0,-2 0,-4 -1,-5 -1,-2 -2,-4 -3,-5 -1,-2 -3,-4 -4,-5 -1,-2 -3,-3 -6,-5 -3,-2 -5,-3 -7,-4 -2,-1 -4,-3 -8,-4 -4,-2 -6,-4 -9,-5 -2,-1 -5,-2 -9,-4 -4,-2 -8,-4 -10,-5 -11,12 -17,25 -17,38zm468 89c-15,8 -33,12 -54,12 -22,0 -40,-4 -55,-12 -15,-8 -27,-20 -36,-34 -8,-15 -14,-32 -18,-50 -4,-19 -6,-40 -6,-62 0,-23 2,-44 6,-62 4,-18 10,-35 18,-50 9,-14 21,-26 36,-34 15,-8 33,-12 55,-12 21,0 39,4 54,12 15,8 27,20 36,34 8,15 15,32 19,50 4,18 6,39 6,62 0,22 -2,43 -6,62 -4,18 -11,35 -19,50 -9,14 -21,26 -36,34zm-92 -146c0,60 12,90 38,90 25,0 38,-30 38,-90 0,-60 -13,-89 -38,-89 -26,0 -38,29 -38,89zm364 146c-15,8 -34,12 -55,12 -21,0 -39,-4 -54,-12 -15,-8 -27,-20 -36,-34 -8,-15 -15,-32 -19,-50 -4,-19 -6,-40 -6,-62 0,-23 2,-44 6,-62 4,-18 11,-35 19,-50 9,-14 21,-26 36,-34 15,-8 33,-12 54,-12 21,0 40,4 55,12 15,8 27,20 36,34 8,15 14,32 18,50 4,18 6,39 6,62 0,22 -2,43 -6,62 -4,18 -10,35 -18,50 -9,14 -21,26 -36,34zm-93 -146c0,60 13,90 38,90 26,0 38,-30 38,-90 0,-60 -12,-89 -38,-89 -25,0 -38,29 -38,89zm-3271 457c-21,-33 -31,-70 -31,-111 0,-35 10,-69 31,-101l35 0c-19,32 -28,66 -28,101 0,38 9,75 28,111l-35 0zm3995 0c19,-36 28,-73 28,-111 0,-35 -9,-69 -28,-101l36 0c20,32 31,66 31,101 0,41 -11,78 -31,111l-36 0zm-3939 -24l0 -129 125 0 0 129 -43 0 0 -92 -39 0 0 92 -43 0zm154 50l0 -179 39 0 0 7 0 8 0 0c9,-12 22,-18 39,-18 18,0 32,6 42,19 11,12 16,29 16,49 0,20 -6,36 -17,49 -11,12 -26,18 -43,18 -12,0 -23,-4 -33,-12l0 0c0,3 0,7 0,11l0 48 -43 0zm42 -113c0,8 2,15 7,21 4,6 10,9 18,9 8,0 14,-2 18,-8 5,-5 8,-13 8,-22 0,-10 -3,-18 -7,-23 -5,-6 -11,-9 -19,-9 -7,0 -13,2 -18,8 -4,5 -7,13 -7,24zm107 27c0,-8 2,-15 7,-21 4,-6 10,-11 18,-14 7,-3 15,-6 23,-7 8,-2 16,-2 25,-2l4 0 0 -2c0,-10 -6,-15 -19,-15 -11,0 -23,4 -35,13l-15 -31c6,-4 14,-8 24,-12 10,-3 20,-5 30,-5 18,0 32,5 43,14 10,10 15,22 15,39l0 79 -40 0 0 -8 1 -8 -1 0c-4,6 -9,11 -16,14 -7,3 -14,5 -22,5 -12,0 -22,-4 -30,-11 -8,-8 -12,-17 -12,-28zm43 -4c0,3 1,6 3,8 2,2 5,3 9,3 6,0 11,-3 16,-7 4,-5 6,-10 6,-16l0 -3 -4 0c-8,0 -15,1 -21,3 -6,3 -9,6 -9,12zm105 40l0 -129 43 0 0 93 36 0 0 -93 44 0 0 93 18 0 0 66 -38 0 0 -30 -103 0zm161 0l0 -129 43 0 0 47 18 0c4,-15 12,-27 24,-36 13,-9 27,-14 44,-14 20,0 37,7 51,19 13,13 20,29 20,49 0,20 -7,36 -20,48 -14,13 -30,19 -51,19 -17,0 -32,-5 -44,-14 -13,-9 -21,-21 -24,-37l-18 0 0 48 -43 0zm102 -64c0,9 3,17 8,23 5,5 11,8 19,8 8,0 15,-3 20,-8 5,-6 7,-14 7,-23 0,-9 -2,-17 -7,-23 -5,-6 -12,-9 -20,-9 -8,0 -14,3 -19,9 -5,6 -8,14 -8,23zm113 0c0,-19 6,-35 19,-48 13,-13 31,-20 53,-20 6,0 13,1 19,2 6,1 11,3 15,5 3,1 7,3 10,5 3,1 5,3 6,4l2 2 -18 29c-1,-1 -3,-2 -4,-4 -2,-1 -6,-3 -11,-5 -6,-2 -12,-3 -17,-3 -17,0 -28,6 -33,18l49 0 0 29 -49 0c5,13 17,20 34,20 6,0 13,-2 19,-4 6,-3 11,-6 14,-8l4 -4 16 29c-1,1 -2,2 -3,2 -1,1 -3,3 -7,5 -3,2 -7,4 -11,6 -4,2 -9,4 -16,5 -6,1 -13,2 -19,2 -22,0 -40,-6 -53,-20 -13,-13 -19,-29 -19,-47zm140 64l12 -129 50 0 19 57 5 15 1 0c2,-6 3,-11 5,-15l19 -57 50 0 12 129 -42 0 -3 -59 1 -22 -1 0c-2,7 -5,13 -7,19l-17 45 -35 0 -17 -45 -7 -19 -1 0 0 22 -3 59 -41 0zm210 -16c-14,-12 -21,-28 -21,-48 0,-20 7,-36 21,-49 14,-12 32,-19 52,-19 21,0 38,7 52,19 14,13 21,29 21,49 0,20 -7,36 -21,48 -14,13 -31,19 -52,19 -20,0 -38,-6 -52,-19zm23 -48c0,9 3,17 9,23 5,5 12,8 20,8 8,0 15,-3 21,-8 6,-6 9,-14 9,-23 0,-9 -3,-17 -9,-23 -6,-6 -13,-9 -21,-9 -8,0 -15,3 -20,9 -6,6 -9,14 -9,23zm187 64l0 -129 124 0 0 129 -43 0 0 -92 -38 0 0 92 -43 0zm167 -16c-14,-12 -21,-28 -21,-48 0,-20 7,-36 21,-49 14,-12 32,-19 52,-19 21,0 38,7 52,19 14,13 21,29 21,49 0,20 -7,36 -21,48 -14,13 -31,19 -52,19 -20,0 -38,-6 -52,-19zm23 -48c0,9 3,17 9,23 5,5 12,8 20,8 8,0 15,-3 21,-8 6,-6 9,-14 9,-23 0,-9 -3,-17 -9,-23 -6,-6 -13,-9 -21,-9 -8,0 -15,3 -20,9 -6,6 -9,14 -9,23zm181 64l12 -129 50 0 19 57 5 15 1 0c2,-6 3,-11 5,-15l19 -57 50 0 12 129 -42 0 -3 -59 1 -22 -1 0c-2,7 -5,13 -7,19l-17 45 -35 0 -17 -45 -7 -19 -1 0 0 22 -3 59 -41 0zm197 -145l0 -34 42 0 0 34 -42 0zm0 145l0 -129 43 0 0 129 -43 0zm65 -64c0,-19 6,-35 19,-48 13,-13 30,-20 52,-20 10,0 20,2 29,5 9,3 17,8 23,15l-19 29c-8,-9 -18,-13 -30,-13 -10,0 -17,3 -23,9 -5,6 -8,14 -8,22 0,9 3,16 9,22 6,7 13,10 24,10 11,0 23,-5 35,-15l16 30c-7,6 -15,11 -25,15 -10,4 -20,6 -31,6 -22,0 -39,-6 -52,-20 -13,-13 -19,-29 -19,-47zm173 64l0 -92 -39 0 0 -37 122 0 0 37 -40 0 0 92 -43 0zm102 12c5,3 9,5 14,5 10,0 17,-5 20,-13l3 -6 -55 -127 49 0 19 60 5 20 0 0c2,-9 3,-15 5,-20l16 -60 47 0 -53 143c-5,13 -12,23 -22,29 -10,6 -20,10 -31,10 -5,0 -10,-1 -15,-3 -5,-1 -9,-3 -12,-4l-4 -2 14 -32zm202 -157l0 -34 43 0 0 34 -43 0zm0 145l0 -129 43 0 0 129 -43 0zm135 0l0 -129 125 0 0 129 -44 0 0 -92 -38 0 0 92 -43 0zm167 -16c-14,-12 -21,-28 -21,-48 0,-20 7,-36 21,-49 14,-12 32,-19 52,-19 21,0 38,7 52,19 14,13 21,29 21,49 0,20 -7,36 -21,48 -14,13 -31,19 -52,19 -20,0 -38,-6 -52,-19zm23 -48c0,9 3,17 9,23 5,5 12,8 20,8 9,0 15,-3 21,-8 6,-6 9,-14 9,-23 0,-9 -3,-17 -9,-23 -6,-6 -12,-9 -21,-9 -8,0 -15,3 -20,9 -6,6 -9,14 -9,23zm201 48c-14,-12 -22,-28 -22,-48 0,-20 8,-36 22,-49 14,-12 31,-19 51,-19 21,0 38,7 52,19 15,13 22,29 22,49 0,20 -7,36 -21,48 -14,13 -32,19 -52,19 -21,0 -38,-6 -52,-19zm22 -48c0,9 3,17 9,23 5,5 12,8 21,8 8,0 15,-3 20,-8 6,-6 9,-14 9,-23 0,-9 -3,-17 -9,-23 -5,-6 -12,-9 -20,-9 -9,0 -16,3 -21,9 -6,6 -9,14 -9,23zm119 -13c0,-26 5,-46 16,-61 12,-15 30,-27 55,-36l42 -14 12 35 -48 16c-7,2 -12,4 -17,6 -4,2 -8,5 -12,10 -4,4 -6,9 -6,15l1 0c9,-8 22,-12 37,-12 17,0 31,5 41,16 10,11 15,25 15,43 0,18 -6,33 -18,44 -12,12 -29,18 -49,18 -22,0 -40,-7 -52,-22 -11,-14 -17,-34 -17,-58zm43 18c0,8 2,15 7,20 5,4 11,7 18,7 7,0 13,-3 17,-7 5,-5 8,-12 8,-20 0,-8 -3,-14 -8,-19 -4,-5 -10,-8 -17,-8 -7,0 -13,3 -18,8 -5,5 -7,11 -7,19zm104 60l0 -37c2,-1 5,-1 7,-2 2,-1 4,-2 6,-4 3,-2 4,-5 6,-9 1,-3 2,-8 3,-14 1,-7 2,-14 2,-22l0 -42 106 0 0 129 -44 0 0 -94 -21 0 0 7c0,28 -5,50 -15,65 -10,16 -27,23 -50,23zm149 -37c0,-8 3,-15 7,-21 5,-6 11,-11 18,-14 7,-3 15,-6 23,-7 8,-2 16,-2 25,-2l4 0 0 -2c0,-10 -6,-15 -18,-15 -12,0 -24,4 -36,13l-15 -31c6,-4 14,-8 24,-12 10,-3 21,-5 31,-5 17,0 31,5 42,14 10,10 15,22 15,39l0 79 -39 0 0 -8 0 -8 0 0c-5,6 -10,11 -17,14 -7,3 -14,5 -22,5 -12,0 -22,-4 -30,-11 -8,-8 -12,-17 -12,-28zm43 -4c0,3 1,6 3,8 3,2 6,3 9,3 6,0 12,-3 16,-7 4,-5 6,-10 6,-16l0 -3 -4 0c-8,0 -15,1 -21,3 -6,3 -9,6 -9,12zm97 -24c0,-19 7,-35 20,-48 13,-13 30,-20 52,-20 10,0 19,2 29,5 9,3 16,8 22,15l-18 29c-8,-9 -19,-13 -30,-13 -10,0 -17,3 -23,9 -5,6 -8,14 -8,22 0,9 3,16 9,22 5,7 13,10 23,10 12,0 24,-5 36,-15l15 30c-6,6 -14,11 -24,15 -10,4 -20,6 -31,6 -22,0 -39,-6 -52,-20 -13,-13 -20,-29 -20,-47zm174 64l0 -92 -39 0 0 -37 122 0 0 37 -40 0 0 92 -43 0zm101 -145l0 -34 43 0 0 34 -43 0zm0 145l0 -129 43 0 0 129 -43 0z"/>
 </g>
</svg>
