<?xml version="1.0" encoding="UTF-8"?>
<!DOCTYPE svg PUBLIC "-//W3C//DTD SVG 1.1//EN" "http://www.w3.org/Graphics/SVG/1.1/DTD/svg11.dtd">
<!-- Creator: CorelDRAW X7 -->
<svg xmlns="http://www.w3.org/2000/svg" xml:space="preserve" width="95.8008mm" height="15.9325mm" version="1.1" style="shape-rendering:geometricPrecision; text-rendering:geometricPrecision; image-rendering:optimizeQuality; fill-rule:evenodd; clip-rule:evenodd"
viewBox="0 0 9580 1593"
 xmlns:xlink="http://www.w3.org/1999/xlink">
 <defs>
  <style type="text/css">
   <![CDATA[
    .fil0 {fill:#FFAAD1}
    .fil1 {fill:#FEFEFE;fill-rule:nonzero}
   ]]>
  </style>
 </defs>
 <g id="Слой_x0020_1">
  <metadata id="CorelCorpID_0Corel-Layer"/>
  <path class="fil0" d="M244 0l9095 0c132,0 241,109 241,244l0 1106c0,134 -109,243 -241,243l-9095 0c-135,0 -244,-109 -244,-243l0 -1106c0,-135 109,-244 244,-244z"/>
  <path class="fil1" d="M2103 759c-31,17 -68,25 -114,25 -43,0 -80,-8 -111,-25 -31,-16 -56,-41 -74,-70 -17,-31 -31,-66 -39,-103 -9,-39 -13,-82 -13,-128 0,-47 4,-91 13,-128 8,-37 22,-72 39,-103 18,-29 43,-54 74,-70 31,-17 68,-25 111,-25 46,0 83,8 114,25 31,16 56,41 74,70 17,31 29,66 37,103 9,37 13,81 13,128 0,46 -4,89 -13,128 -8,37 -20,72 -37,103 -18,29 -43,54 -74,70zm-192 -301c0,124 27,186 78,186 54,0 79,-62 79,-186 0,-124 -25,-184 -79,-184 -51,0 -78,60 -78,184zm400 25c0,-43 7,-87 19,-126 14,-41 33,-78 58,-113 23,-33 56,-60 95,-81 39,-21 80,-31 128,-31 55,0 101,10 140,29l-41 132c-9,-4 -21,-8 -39,-12 -19,-4 -36,-7 -48,-7 -68,0 -113,36 -136,104l2 0c8,-4 21,-11 37,-15 19,-4 35,-6 50,-6 62,0 111,21 148,64 39,43 58,93 58,151 0,57 -21,107 -60,148 -39,44 -91,64 -157,64 -68,0 -128,-25 -179,-78 -50,-52 -75,-126 -75,-223l0 0zm254 161c21,0 35,-6 48,-21 10,-14 16,-31 16,-49 0,-27 -8,-48 -22,-66 -17,-19 -42,-27 -73,-27 -43,0 -66,12 -66,37 0,35 11,66 31,89 21,25 44,37 66,37l0 0zm287 -161c0,-43 8,-87 21,-126 12,-41 33,-78 56,-113 24,-33 57,-60 97,-81 37,-21 80,-31 127,-31 56,0 102,10 141,29l-41 132c-9,-4 -21,-8 -40,-12 -18,-4 -35,-7 -47,-7 -68,0 -114,36 -136,104l2 0c6,-4 20,-11 37,-15 18,-4 33,-6 49,-6 62,0 112,21 149,64 37,43 58,93 58,151 0,57 -21,107 -60,148 -39,44 -91,64 -157,64 -68,0 -128,-25 -179,-78 -50,-52 -77,-126 -77,-223l0 0zm256 161c19,0 35,-6 48,-21 10,-14 16,-31 16,-49 0,-27 -8,-48 -23,-66 -16,-19 -41,-27 -72,-27 -43,0 -66,12 -66,37 0,35 10,66 31,89 21,25 43,37 66,37l0 0zm524 130l223 -442c6,-12 13,-24 19,-33 6,-10 10,-16 14,-18l4 -7 0 -2c-4,2 -16,5 -37,5l-250 0 0 -133 452 0 0 108 -264 522 -161 0 0 0zm436 -153l0 -93 243 -384 188 0 0 349 76 0 0 128 -76 0 0 153 -153 0 0 -153 -278 0zm157 -128l121 0 0 -140 7 -70 -3 0c-8,25 -18,47 -31,64l-94 144 0 2 0 0zm406 209l74 -120c40,39 83,58 130,58 27,0 50,-6 66,-19 15,-12 23,-27 23,-45 0,-46 -39,-68 -117,-68l-44 0 -33 -77 83 -99c10,-10 18,-20 27,-31 10,-10 16,-16 20,-20l8 -9 0 0c-14,2 -33,5 -59,5l-151 0 0 -133 398 0 0 95 -128 147c46,10 83,33 110,66 29,33 41,72 41,118 0,57 -19,109 -60,150 -41,44 -99,64 -173,64 -89,0 -161,-27 -215,-82l0 0zm741 0l72 -120c42,39 83,58 128,58 23,0 44,-8 62,-21 19,-14 27,-33 27,-58 0,-24 -8,-43 -29,-57 -19,-15 -41,-21 -72,-21 -27,0 -56,6 -85,21l-80 -31 24 -329 353 0 0 133 -218 0 -4 57 -3 25 0 0c13,-4 27,-6 48,-6 70,0 126,18 165,58 39,39 60,88 60,148 0,66 -23,120 -66,161 -44,44 -99,64 -167,64 -87,0 -159,-27 -215,-82l0 0zm518 -114c0,-23 6,-45 17,-70 12,-23 24,-39 35,-52 12,-12 22,-22 35,-31 -37,-35 -58,-74 -58,-121 0,-50 18,-93 54,-128 37,-35 88,-54 158,-54 62,0 112,17 153,50 39,33 60,78 60,134 0,45 -21,95 -62,144 50,33 74,79 74,132 0,52 -20,97 -61,137 -42,37 -97,55 -172,55 -72,0 -130,-18 -171,-58 -41,-37 -62,-84 -62,-138l0 0zm281 -183c16,-25 22,-50 22,-79 0,-16 -6,-31 -16,-41 -12,-11 -29,-17 -50,-17 -18,0 -33,4 -43,15 -8,8 -14,20 -14,35 0,18 8,35 26,47 17,13 42,25 75,40zm-124 171c0,20 8,37 23,51 14,15 33,21 53,21 23,0 42,-4 56,-16 14,-11 21,-27 21,-48 0,-4 0,-8 -2,-10 -3,-4 -5,-9 -7,-11 -2,-4 -6,-8 -8,-10 -2,-4 -6,-6 -12,-10 -6,-4 -11,-6 -15,-8 -4,-3 -8,-7 -16,-9 -9,-4 -13,-8 -19,-10 -4,-2 -10,-4 -18,-8 -9,-4 -17,-9 -21,-11 -23,25 -35,52 -35,79l0 0zm966 183c-31,17 -68,25 -112,25 -45,0 -82,-8 -113,-25 -31,-16 -56,-41 -75,-70 -16,-31 -28,-66 -37,-103 -8,-39 -12,-82 -12,-128 0,-47 4,-91 12,-128 9,-37 21,-72 37,-103 19,-29 44,-54 75,-70 31,-17 68,-25 113,-25 44,0 81,8 112,25 31,16 55,41 74,70 17,31 31,66 39,103 9,37 13,81 13,128 0,46 -5,89 -13,128 -8,37 -22,72 -39,103 -19,29 -43,54 -74,70zm-190 -301c0,124 25,186 78,186 52,0 79,-62 79,-186 0,-124 -27,-184 -79,-184 -53,0 -78,60 -78,184zm751 301c-31,17 -70,25 -113,25 -44,0 -81,-8 -112,-25 -31,-16 -56,-41 -74,-70 -17,-31 -31,-66 -39,-103 -9,-39 -13,-82 -13,-128 0,-47 4,-91 13,-128 8,-37 22,-72 39,-103 18,-29 43,-54 74,-70 31,-17 68,-25 112,-25 43,0 82,8 113,25 31,16 56,41 74,70 17,31 29,66 38,103 8,37 12,81 12,128 0,46 -4,89 -12,128 -9,37 -21,72 -38,103 -18,29 -43,54 -74,70zm-192 -301c0,124 27,186 79,186 53,0 78,-62 78,-186 0,-124 -25,-184 -78,-184 -52,0 -79,60 -79,184zm-6750 943c-44,-68 -64,-144 -64,-229 0,-72 20,-142 64,-208l72 0c-39,66 -58,136 -58,208 0,79 19,155 58,229l-72 0zm8244 0c40,-74 58,-150 58,-229 0,-72 -18,-142 -58,-208l75 0c41,66 64,136 64,208 0,85 -23,161 -64,229l-75 0zm-8129 -49l0 -266 258 0 0 266 -89 0 0 -190 -80 0 0 190 -89 0zm318 103l0 -369 80 0 0 14 0 17 0 0c19,-25 46,-38 81,-38 37,0 66,13 87,40 22,24 33,59 33,101 0,41 -13,74 -35,101 -23,25 -54,37 -89,37 -25,0 -48,-8 -68,-25l0 0c0,6 0,15 0,23l0 99 -89 0 0 0zm87 -233c0,16 4,31 14,43 8,12 21,19 37,19 17,0 29,-4 37,-17 11,-10 17,-27 17,-45 0,-21 -6,-37 -15,-48 -10,-12 -22,-18 -39,-18 -14,0 -27,4 -37,16 -8,11 -14,27 -14,50zm220 55c0,-16 5,-30 15,-43 8,-12 21,-23 37,-29 14,-6 31,-12 47,-14 17,-4 34,-4 52,-4l8 0 0 -4c0,-21 -12,-31 -39,-31 -23,0 -47,8 -72,26l-31 -64c12,-8 29,-16 49,-24 21,-7 42,-11 62,-11 38,0 66,11 89,29 21,21 31,46 31,81l0 163 -82 0 0 -17 2 -16 -2 0c-9,12 -19,22 -33,29 -15,6 -29,10 -46,10 -25,0 -45,-8 -62,-23 -16,-16 -25,-35 -25,-58l0 0zm89 -8c0,6 2,13 6,17 4,4 11,6 19,6 12,0 23,-6 33,-15 8,-10 12,-20 12,-33l0 -6 -8 0c-16,0 -31,2 -43,6 -13,7 -19,13 -19,25l0 0zm217 83l0 -266 89 0 0 191 74 0 0 -191 91 0 0 191 37 0 0 137 -79 0 0 -62 -212 0 0 0zm332 0l0 -266 89 0 0 97 37 0c8,-31 25,-56 50,-75 26,-18 55,-29 90,-29 42,0 77,15 106,40 26,26 41,59 41,101 0,41 -15,74 -41,99 -29,27 -62,39 -106,39 -35,0 -66,-10 -90,-29 -27,-18 -44,-43 -50,-76l-37 0 0 99 -89 0zm211 -132c0,18 6,35 16,47 10,10 23,17 39,17 17,0 31,-7 42,-17 10,-12 14,-29 14,-47 0,-19 -4,-35 -14,-48 -11,-12 -25,-18 -42,-18 -16,0 -29,6 -39,18 -10,13 -16,29 -16,48zm233 0c0,-40 12,-73 39,-99 27,-27 64,-42 109,-42 13,0 27,2 40,4 12,3 22,7 31,11 6,2 14,6 20,10 6,2 11,6 13,8l4 5 -37 59c-2,-2 -7,-4 -9,-8 -4,-2 -12,-6 -22,-10 -13,-4 -25,-6 -35,-6 -36,0 -58,12 -69,37l102 0 0 60 -102 0c11,26 36,41 71,41 12,0 26,-4 39,-8 12,-7 23,-13 29,-17l8 -8 33 60c-2,2 -4,4 -6,4 -2,2 -6,6 -15,10 -6,4 -14,8 -22,13 -9,4 -19,8 -33,10 -13,2 -27,4 -40,4 -45,0 -82,-12 -109,-41 -27,-27 -39,-60 -39,-97l0 0zm289 132l25 -266 103 0 39 117 10 31 2 0c4,-12 7,-23 11,-31l39 -117 103 0 25 266 -87 0 -6 -122 2 -45 -2 0c-4,14 -10,26 -15,39l-35 93 -72 0 -35 -93 -14 -39 -2 0 0 45 -7 122 -84 0 0 0zm433 -33c-29,-25 -43,-58 -43,-99 0,-42 14,-75 43,-101 29,-25 66,-40 107,-40 44,0 79,15 108,40 29,26 43,59 43,101 0,41 -14,74 -43,99 -29,27 -64,39 -108,39 -41,0 -78,-12 -107,-39zm48 -99c0,18 6,35 18,47 11,10 25,17 41,17 17,0 31,-7 44,-17 12,-12 18,-29 18,-47 0,-19 -6,-35 -18,-48 -13,-12 -27,-18 -44,-18 -16,0 -30,6 -41,18 -12,13 -18,29 -18,48zm386 132l0 -266 255 0 0 266 -88 0 0 -190 -79 0 0 190 -88 0 0 0zm344 -33c-29,-25 -43,-58 -43,-99 0,-42 14,-75 43,-101 29,-25 66,-40 108,-40 43,0 78,15 107,40 29,26 43,59 43,101 0,41 -14,74 -43,99 -29,27 -64,39 -107,39 -42,0 -79,-12 -108,-39zm48 -99c0,18 6,35 18,47 11,10 25,17 42,17 16,0 30,-7 43,-17 12,-12 18,-29 18,-47 0,-19 -6,-35 -18,-48 -13,-12 -27,-18 -43,-18 -17,0 -31,6 -42,18 -12,13 -18,29 -18,48zm373 132l25 -266 103 0 39 117 11 31 2 0c4,-12 6,-23 10,-31l39 -117 103 0 25 266 -86 0 -7 -122 2 -45 -2 0c-4,14 -10,26 -14,39l-35 93 -72 0 -35 -93 -15 -39 -2 0 0 45 -6 122 -85 0 0 0zm407 -299l0 -71 86 0 0 71 -86 0zm0 299l0 -266 89 0 0 266 -89 0zm134 -132c0,-40 12,-73 39,-99 27,-27 62,-42 107,-42 21,0 42,4 60,11 19,6 35,16 48,31l-39 59c-17,-18 -38,-26 -62,-26 -21,0 -35,6 -48,18 -10,13 -16,29 -16,46 0,18 6,33 18,45 13,14 27,21 50,21 22,0 47,-11 72,-31l33 62c-14,12 -31,22 -52,31 -20,8 -41,12 -64,12 -45,0 -80,-12 -107,-41 -27,-27 -39,-60 -39,-97l0 0zm357 132l0 -190 -81 0 0 -76 252 0 0 76 -82 0 0 190 -89 0zm210 25c11,6 19,10 29,10 21,0 35,-10 42,-27l6 -12 -114 -262 101 0 40 123 10 42 0 0c4,-19 6,-31 10,-42l33 -123 97 0 -109 295c-10,27 -25,47 -45,60 -21,12 -42,20 -64,20 -11,0 -21,-2 -31,-6 -11,-2 -19,-6 -25,-8l-8 -4 28 -66 0 0zm417 -324l0 -71 89 0 0 71 -89 0zm0 299l0 -266 89 0 0 266 -89 0zm279 0l0 -266 258 0 0 266 -91 0 0 -190 -78 0 0 190 -89 0zm345 -33c-29,-25 -44,-58 -44,-99 0,-42 15,-75 44,-101 29,-25 66,-40 107,-40 43,0 78,15 107,40 29,26 44,59 44,101 0,41 -15,74 -44,99 -29,27 -64,39 -107,39 -41,0 -78,-12 -107,-39zm47 -99c0,18 6,35 19,47 10,10 24,17 41,17 19,0 31,-7 43,-17 13,-12 19,-29 19,-47 0,-19 -6,-35 -19,-48 -12,-12 -24,-18 -43,-18 -17,0 -31,6 -41,18 -13,13 -19,29 -19,48zm415 99c-29,-25 -45,-58 -45,-99 0,-42 16,-75 45,-101 29,-25 64,-40 105,-40 43,0 79,15 107,40 31,26 46,59 46,101 0,41 -15,74 -43,99 -29,27 -67,39 -108,39 -43,0 -78,-12 -107,-39l0 0zm45 -99c0,18 7,35 19,47 10,10 25,17 43,17 17,0 31,-7 42,-17 12,-12 18,-29 18,-47 0,-19 -6,-35 -18,-48 -11,-12 -25,-18 -42,-18 -18,0 -33,6 -43,18 -12,13 -19,29 -19,48zm246 -27c0,-54 10,-95 33,-126 25,-31 62,-56 113,-74l87 -29 25 72 -99 33c-15,4 -25,8 -35,12 -9,5 -17,11 -25,21 -8,8 -12,19 -12,31l2 0c18,-16 45,-25 76,-25 35,0 64,11 85,33 20,23 31,52 31,89 0,37 -13,68 -38,91 -24,25 -59,37 -101,37 -45,0 -82,-14 -107,-45 -23,-29 -35,-71 -35,-120l0 0zm89 37c0,17 4,31 14,41 10,9 23,15 37,15 15,0 27,-6 35,-15 11,-10 17,-24 17,-41 0,-16 -6,-29 -17,-39 -8,-11 -20,-17 -35,-17 -14,0 -27,6 -37,17 -10,10 -14,23 -14,39zm214 124l0 -77c4,-2 11,-2 15,-4 4,-2 8,-4 12,-8 6,-4 8,-10 12,-18 3,-7 5,-17 7,-29 2,-15 4,-29 4,-46l0 -86 219 0 0 266 -91 0 0 -194 -44 0 0 14c0,58 -10,103 -31,134 -20,33 -55,48 -103,48l0 0zm308 -77c0,-16 6,-30 14,-43 11,-12 23,-23 37,-29 15,-6 31,-12 48,-14 16,-4 33,-4 51,-4l9 0 0 -4c0,-21 -13,-31 -37,-31 -25,0 -50,8 -75,26l-31 -64c13,-8 29,-16 50,-24 20,-7 43,-11 64,-11 35,0 64,11 86,29 21,21 31,46 31,81l0 163 -80 0 0 -17 0 -16 0 0c-10,12 -21,22 -35,29 -15,6 -29,10 -46,10 -24,0 -45,-8 -61,-23 -17,-16 -25,-35 -25,-58l0 0zm89 -8c0,6 2,13 6,17 6,4 12,6 18,6 13,0 25,-6 33,-15 9,-10 13,-20 13,-33l0 -6 -9 0c-16,0 -31,2 -43,6 -12,7 -18,13 -18,25l0 0zm200 -49c0,-40 14,-73 41,-99 27,-27 62,-42 107,-42 21,0 40,4 60,11 19,6 33,16 46,31l-38 59c-16,-18 -39,-26 -61,-26 -21,0 -36,6 -48,18 -10,13 -16,29 -16,46 0,18 6,33 18,45 10,14 27,21 48,21 24,0 49,-11 74,-31l31 62c-13,12 -29,22 -50,31 -20,8 -41,12 -64,12 -45,0 -80,-12 -107,-41 -27,-27 -41,-60 -41,-97l0 0zm359 132l0 -190 -81 0 0 -76 252 0 0 76 -82 0 0 190 -89 0zm208 -299l0 -71 89 0 0 71 -89 0zm0 299l0 -266 89 0 0 266 -89 0z"/>
 </g>
</svg>
